<?xml version="1.0" encoding="UTF-8"?>
<svg version="1.1" xmlns="http://www.w3.org/2000/svg" width="1080" height="1080">
<path d="M0 0 C356.4 0 712.8 0 1080 0 C1080 356.4 1080 712.8 1080 1080 C723.6 1080 367.2 1080 0 1080 C0 723.6 0 367.2 0 0 Z " fill="#FEFEFE" transform="translate(0,0)"/>
<path d="M0 0 C0 0.66 0 1.32 0 2 C1.10214844 2.18369141 1.10214844 2.18369141 2.2265625 2.37109375 C11.77620893 4.53657695 17.87591267 11.06192648 22.9375 19.0625 C26.64939178 29.24700308 24.08122007 41.3688022 20 51 C12.57781727 66.03226881 0.79697907 78.29132167 -11 90 C-12.13750145 91.14766225 -13.27416207 92.29615827 -14.41015625 93.4453125 C-15.62756484 94.67191403 -16.84501342 95.89847588 -18.0625 97.125 C-18.67416016 97.74503906 -19.28582031 98.36507812 -19.91601562 99.00390625 C-20.51220703 99.60332031 -21.10839844 100.20273437 -21.72265625 100.8203125 C-22.25640869 101.35930176 -22.79016113 101.89829102 -23.34008789 102.45361328 C-25.11070864 104.10313701 -27.06406176 105.54804632 -29 107 C-29.33 115.91 -29.66 124.82 -30 134 C7.62 134 45.24 134 84 134 C84 163.04 84 192.08 84 222 C99.18 222 114.36 222 130 222 C130 264.57 130 307.14 130 351 C20.44 351 -89.12 351 -202 351 C-202 308.43 -202 265.86 -202 222 C-186.82 222 -171.64 222 -156 222 C-156 192.96 -156 163.92 -156 134 C-118.05 134 -80.1 134 -41 134 C-41.33 125.09 -41.66 116.18 -42 107 C-45.3 104.36 -48.6 101.72 -52 99 C-53.58843486 97.55573122 -55.15464284 96.08528767 -56.66796875 94.5625 C-57.41626953 93.81226563 -58.16457031 93.06203125 -58.93554688 92.2890625 C-59.67869141 91.53367187 -60.42183594 90.77828125 -61.1875 90 C-61.94224609 89.24460937 -62.69699219 88.48921875 -63.47460938 87.7109375 C-79.07036503 71.99365648 -95.77322855 53.93293765 -96.3125 30.6875 C-96.22380612 22.02506441 -93.48456383 15.89169051 -87.62890625 9.56640625 C-79.57943512 1.82578773 -71.12052447 0.59813458 -60.30712891 0.63208008 C-54.46683337 0.76681683 -49.95518935 1.77601697 -45 5 C-44.32195312 5.43183594 -43.64390625 5.86367188 -42.9453125 6.30859375 C-38.26062215 9.47875569 -38.26062215 9.47875569 -37 12 C-33.86285157 10.60494063 -31.71762366 8.93325414 -29.25 6.5625 C-20.27778889 -1.28205616 -11.27188101 -0.3458418 0 0 Z " fill="#E49096" transform="translate(346,395)"/>
<path d="M0 0 C3.15230315 2.88734663 5.03154495 5.65950164 7 9.4375 C13.21592302 20.40281874 22.52257086 30.49301567 33.875 36.125 C34.86242187 36.62257813 35.84984375 37.12015625 36.8671875 37.6328125 C48.01351999 42.49717206 61.64882447 43.08383324 73.125 38.875 C78.48951628 36.4545085 83.34056716 33.58829885 88 30 C88.65226563 29.52304687 89.30453125 29.04609375 89.9765625 28.5546875 C98.74507143 21.60276209 105.52583497 11.16855688 110 1 C110.66 1 111.32 1 112 1 C113.00484204 2.95585325 114.00373805 4.91476237 115 6.875 C115.556875 7.96554687 116.11375 9.05609375 116.6875 10.1796875 C118 13 118 13 118 15 C118.66 15 119.32 15 120 15 C121.43025226 16.64093257 122.7942239 18.33991003 124.125 20.0625 C130.80194459 28.35809782 137.19461115 33.77780575 147 38 C147.67289063 38.32097656 148.34578125 38.64195312 149.0390625 38.97265625 C159.41498336 43.27926433 172.6649015 42.00548029 183.01171875 38.3203125 C194.09907505 33.42158514 202.52425542 25.47574458 211 17 C211 44.06 211 71.12 211 99 C108.7 99 6.4 99 -99 99 C-99 72.6 -99 46.2 -99 19 C-97.35 20.65 -95.7 22.3 -94 24 C-84.18858586 33.77740577 -72.88455953 41.09026643 -58.64477539 41.38061523 C-41.67648114 41.33863709 -28.93520169 36.16555877 -16.75 24.25 C-11.59308819 19.02576344 -7.60448608 13.40574407 -4 7 C-3.56816406 6.26007812 -3.13632813 5.52015625 -2.69140625 4.7578125 C-1.77684669 3.18185866 -0.88489016 1.59280228 0 0 Z " fill="#FEFDFD" transform="translate(254,636)"/>
<path d="M0 0 C0.66 0 1.32 0 2 0 C2 23.43 2 46.86 2 71 C-69.61 71 -141.22 71 -215 71 C-215 47.9 -215 24.8 -215 1 C-214.34 1 -213.68 1 -213 1 C-212.59910156 1.88300781 -212.19820312 2.76601563 -211.78515625 3.67578125 C-204.05654255 20.19216636 -192.81932576 33.54719171 -175.3671875 39.96875 C-173.25402351 40.68417856 -171.13841513 41.36467376 -169 42 C-169 42.66 -169 43.32 -169 44 C-151.16922734 43.96379539 -136.74156287 41.46376511 -123 29 C-116.34811386 22.087066 -111.18777758 14.64793093 -107 6 C-104.48254442 8.29532714 -102.92165316 10.66673738 -101.25 13.625 C-93.89935661 26.03259708 -85.33651862 34.26470775 -72 40 C-70.79472656 40.52722656 -69.58945312 41.05445313 -68.34765625 41.59765625 C-63.45862426 43.40543307 -58.66874886 43.55602746 -53.5 43.6875 C-52.5821875 43.72166016 -51.664375 43.75582031 -50.71875 43.79101562 C-48.4792891 43.87266264 -46.2401785 43.94207538 -44 44 C-44 43.34 -44 42.68 -44 42 C-42.98292969 41.79697266 -42.98292969 41.79697266 -41.9453125 41.58984375 C-34.33619469 39.82984005 -29.03347944 36.90101248 -23 32 C-22.14148438 31.30519531 -21.28296875 30.61039063 -20.3984375 29.89453125 C-13.43129606 23.94825495 -7.94946527 17.29767463 -4 9 C-3.34 9 -2.68 9 -2 9 C-1.855625 8.2575 -1.71125 7.515 -1.5625 6.75 C-1.09812508 4.47972261 -0.58136431 2.24240521 0 0 Z " fill="#FEFDFD" transform="translate(416,546)"/>
<path d="M0 0 C7.60017878 5.43080736 12.20674101 13.82798503 16.44921875 21.9375 C16.96871094 21.06867188 17.48820312 20.19984375 18.0234375 19.3046875 C28.60743039 1.74690347 28.60743039 1.74690347 36.21484375 -0.609375 C43.25103228 -2.03629435 50.33889685 -2.37400422 56.51171875 1.625 C60.87633671 5.01258421 64.9626891 8.75750205 65.828125 14.4140625 C66.62784217 28.12836113 59.01021072 40.60277185 50.44921875 50.9375 C48.23440944 53.28654018 45.96233749 55.54986878 43.63671875 57.7890625 C41.62515826 59.76470227 39.77888652 61.79441692 37.94921875 63.9375 C33.03797993 69.64638782 27.79189189 75.11118976 21.94921875 79.875 C19.40331277 81.69153019 19.40331277 81.69153019 18.44921875 83.9375 C15.44921875 83.9375 15.44921875 83.9375 13.16015625 81.80078125 C12.26554687 80.85589844 11.3709375 79.91101563 10.44921875 78.9375 C9.42932792 77.98403757 8.40033831 77.04023106 7.36328125 76.10546875 C2.0540512 71.29723026 -3.1684021 66.56426493 -7.75 61.0390625 C-9.5999017 58.88017505 -11.56479936 56.85854408 -13.54443359 54.81933594 C-19.91525356 48.17058707 -24.4369195 41.15514051 -28.55078125 32.9375 C-28.93234375 32.18597656 -29.31390625 31.43445313 -29.70703125 30.66015625 C-32.63156319 24.03934088 -32.39468548 16.96562693 -30.48828125 10.125 C-24.09736026 -0.38909583 -11.64127091 -4.84904393 0 0 Z " fill="#FEFDFD" transform="translate(293.55078125,408.0625)"/>
<path d="M0 0 C29.37 0 58.74 0 89 0 C85.38823992 8.66822419 82.80324483 14.23603902 77 21 C76.38125 21.8146875 75.7625 22.629375 75.125 23.46875 C67.46227434 32.59640851 57.43945139 37.56573707 45.7890625 39.3359375 C34.74886424 39.92174394 24.07131855 34.55420709 15.8125 27.6875 C7.49724888 19.99919242 2.74830583 10.99322333 0 0 Z " fill="#FEFDFD" transform="translate(318,540)"/>
<path d="M0 0 C29.37 0 58.74 0 89 0 C88.18079905 4.09600476 87.17665969 7.99935704 86 12 C85.34 12 84.68 12 84 12 C83.835 12.804375 83.67 13.60875 83.5 14.4375 C79.08412835 24.92519517 68.27355484 32.69944216 58 37 C47.64841337 39.60173568 35.41405127 39.22318066 26 34 C23.0568801 31.9053471 20.54530892 29.55576193 18 27 C17.32066406 26.37996094 16.64132813 25.75992188 15.94140625 25.12109375 C8.14952423 17.83001322 4.32135018 9.7230379 0 0 Z " fill="#FEFDFD" transform="translate(212,540)"/>
<path d="M0 0 C29.04 0 58.08 0 88 0 C87.05311734 5.68129599 85.72996528 8.46990434 82.4375 12.875 C81.9827832 13.48996338 81.52806641 14.10492676 81.05957031 14.73852539 C73.26085454 25.11355376 64.1709342 33.25808381 51 36 C48.17551072 36.12060878 45.38656513 36.18508833 42.5625 36.1875 C41.81162109 36.19974609 41.06074219 36.21199219 40.28710938 36.22460938 C30.71440324 36.24986717 22.24839546 31.37060209 15.375 24.8125 C0 8.38342199 0 8.38342199 0 0 Z " fill="#FEFDFD" transform="translate(155,629)"/>
<path d="M0 0 C29.04 0 58.08 0 88 0 C84.62645503 10.12063492 84.62645503 10.12063492 81.125 14.1875 C80.4134375 15.0228125 79.701875 15.858125 78.96875 16.71875 C78.3190625 17.4715625 77.669375 18.224375 77 19 C75.824375 20.5778125 75.824375 20.5778125 74.625 22.1875 C67.09859655 30.25150369 57.70743769 35.19733193 46.69921875 36.34375 C34.02395126 36.70121935 23.33379677 32.89062386 13.99609375 24.1171875 C12.21344179 22.14709787 10.59584138 20.12396154 9 18 C8.36964844 17.19175781 7.73929687 16.38351562 7.08984375 15.55078125 C2.97064196 10.02749836 1.79123936 7.16495745 0 0 Z " fill="#FEFEFE" transform="translate(376,629)"/>
<path d="M0 0 C29.04 0 58.08 0 88 0 C84.70015956 9.89952131 80.74908669 17.00692177 73 24 C72.41605469 24.56460938 71.83210938 25.12921875 71.23046875 25.7109375 C62.7336659 33.65469401 54.07401836 36.39351535 42.5859375 36.27734375 C32.97311014 35.533868 25.18531569 32.3263814 18 26 C16.96875 25.21625 15.9375 24.4325 14.875 23.625 C8.2883784 17.6111281 3.80710716 10.01922572 0 2 C0 1.34 0 0.68 0 0 Z " fill="#FEFEFE" transform="translate(266,629)"/>
<path d="M0 0 C4.02853228 2.95649043 6.90143028 6.01679084 8.5 10.8125 C8.58494728 13.47144107 8.61594796 16.10335377 8.59765625 18.76171875 C8.5962413 19.53433548 8.59482635 20.30695221 8.59336853 21.10298157 C8.58777466 23.56869389 8.57522333 26.03431515 8.5625 28.5 C8.55748421 30.17252473 8.55292144 31.84505088 8.54882812 33.51757812 C8.53780724 37.61592046 8.52054684 41.71419479 8.5 45.8125 C6.19 45.8125 3.88 45.8125 1.5 45.8125 C1.5 40.2025 1.5 34.5925 1.5 28.8125 C-6.75 28.8125 -15 28.8125 -23.5 28.8125 C-23.46042843 34.03313275 -23.46042843 34.03313275 -23.40991211 39.25366211 C-23.40276055 41.10683759 -23.4497148 42.95999308 -23.5 44.8125 C-24.5 45.8125 -24.5 45.8125 -27.5625 45.875 C-28.531875 45.854375 -29.50125 45.83375 -30.5 45.8125 C-30.57468636 41.25931299 -30.62885256 36.70649002 -30.66479492 32.15283203 C-30.6797933 30.60687032 -30.70019887 29.06095052 -30.72631836 27.51513672 C-31.02901886 9.12756483 -31.02901886 9.12756483 -25.81640625 2.75390625 C-24.94822266 2.07134766 -24.94822266 2.07134766 -24.0625 1.375 C-23.48628906 0.90191406 -22.91007813 0.42882812 -22.31640625 -0.05859375 C-16.09756569 -3.92363659 -6.15788198 -3.69241419 0 0 Z " fill="#8F9D96" transform="translate(967.5,518.1875)"/>
<path d="M0 0 C4.63054749 2.39796209 6.63110034 4.6856237 8.58935547 9.47900391 C9.63987565 13.32452739 9.75251255 16.88645532 9.6953125 20.8359375 C9.6924826 21.58211334 9.68965271 22.32828918 9.68673706 23.09707642 C9.67561687 25.46071988 9.65052821 27.82397268 9.625 30.1875 C9.61495962 31.79817158 9.60583562 33.40884915 9.59765625 35.01953125 C9.5757044 38.95066944 9.54123185 42.88151867 9.5 46.8125 C7.52 46.8125 5.54 46.8125 3.5 46.8125 C3.5 41.2025 3.5 35.5925 3.5 29.8125 C-5.08 29.8125 -13.66 29.8125 -22.5 29.8125 C-22.5 35.4225 -22.5 41.0325 -22.5 46.8125 C-24.48 46.8125 -26.46 46.8125 -28.5 46.8125 C-31.1822441 44.1302559 -29.73010417 36.36973214 -29.74023438 32.50463867 C-29.74985577 30.28329812 -29.78082275 28.06291663 -29.8125 25.84179688 C-29.93482944 9.9264889 -29.93482944 9.9264889 -24.78125 3.75390625 C-24.1934375 3.29886719 -23.605625 2.84382812 -23 2.375 C-22.11828125 1.66537109 -22.11828125 1.66537109 -21.21875 0.94140625 C-15.43714219 -2.85605888 -6.3367009 -2.11223363 0 0 Z " fill="#8C9A94" transform="translate(592.5,517.1875)"/>
<path d="M0 0 C3.11771358 1.6937277 5.38989747 3.77979493 7 7 C7.34741553 12.29808682 7.53527987 15.75766415 4 20 C-1.2972973 24 -1.2972973 24 -4 24 C-2.93119777 25.34500955 -1.84437492 26.67571438 -0.75 28 C-0.14671875 28.7425 0.4565625 29.485 1.078125 30.25 C3.05972212 32.44884733 3.05972212 32.44884733 7 32 C8.32 29.69 9.64 27.38 11 25 C12.98 25.33 14.96 25.66 17 26 C16.54300722 31.02692063 14.00758252 34.14896261 11 38 C12.0992434 40.56490126 13.12843192 42.12843192 15.125 44.125 C17 46 17 46 17 48 C9.41765071 48.37290242 9.41765071 48.37290242 7.25 46.4375 C6.63125 45.7259375 6.63125 45.7259375 6 45 C3.58914753 45.24939853 1.67611103 46.13429543 -0.5625 47.0625 C-6.57950576 48.70350157 -12.51898391 48.85707829 -18.4375 46.8125 C-22.27812481 44.0959605 -24.57367452 42.23394554 -25.48828125 37.44140625 C-25.76781097 33.40192769 -25.95941392 30.30579972 -23.49609375 26.953125 C-18.98764881 23 -18.98764881 23 -16 23 C-16.7425 21.4840625 -16.7425 21.4840625 -17.5 19.9375 C-19.61449753 14.94325822 -19.65955552 10.90538261 -17.875 5.75 C-13.66341869 -0.42698592 -6.99372263 -1.24685493 0 0 Z " fill="#8C9B94" transform="translate(711,516)"/>
<path d="M0 0 C3.43438618 1.92402587 6.20850752 4.23670441 9 7 C9.2784375 6.37609375 9.556875 5.7521875 9.84375 5.109375 C11.62843121 1.85353765 13.52943698 1.23948679 17 0 C22.78333989 -0.80270437 28.09415344 -0.46041255 33.1807251 2.57897949 C36.7633106 5.37730726 38.61854274 9.66406582 39.34338379 14.1027832 C39.45862333 16.29906852 39.45144961 18.45790008 39.390625 20.65625 C39.38496521 21.44398804 39.37930542 22.23172607 39.37347412 23.04333496 C39.35129902 25.52954034 39.30114337 28.01423928 39.25 30.5 C39.22991039 32.19789567 39.21166396 33.89581421 39.1953125 35.59375 C39.1514969 39.72973639 39.08260605 43.8646139 39 48 C37.02 48 35.04 48 33 48 C32.98541748 46.99622314 32.97083496 45.99244629 32.95581055 44.95825195 C32.89767948 41.2212425 32.82044835 37.48482631 32.73754883 33.74829102 C32.7043689 32.13348037 32.67631542 30.51855569 32.65356445 28.90356445 C32.61988975 26.57714408 32.56757037 24.25176217 32.51171875 21.92578125 C32.50532883 21.20787918 32.4989389 20.48997711 32.49235535 19.75032043 C32.36425028 15.34733203 31.6658942 12.52660544 29 9 C25.57905881 6.43429411 22.15226516 6.56291946 18 7 C15.24670979 8.79562405 13.47372539 10.05254922 12 13 C11.84339117 15.62380313 11.7417092 18.22524852 11.68359375 20.8515625 C11.66281265 21.62559418 11.64203156 22.39962585 11.62062073 23.19711304 C11.55516552 25.67298392 11.49625913 28.14896202 11.4375 30.625 C11.39431093 32.30209448 11.35069652 33.97917807 11.30664062 35.65625 C11.19948829 39.77072308 11.09820955 43.88530414 11 48 C9.00045254 48.04254356 6.99958364 48.04080783 5 48 C3.07961924 46.07961924 3.81648434 42.51547301 3.7890625 39.89453125 C3.76097407 38.42121323 3.73230949 36.94790609 3.703125 35.47460938 C3.66199723 33.14868707 3.62511914 30.82296376 3.59863281 28.49682617 C3.57086928 26.25396368 3.52497809 24.01203073 3.4765625 21.76953125 C3.47330963 21.0818013 3.47005676 20.39407135 3.46670532 19.6855011 C3.35118888 15.1042736 2.48397459 11.86131838 0 8 C-3.63782632 6.78739123 -6.17735999 6.60455448 -10 7 C-13.15954305 9.54137159 -14.71540886 11.14622659 -16 15 C-16.1529647 17.51054905 -16.25695178 19.99888525 -16.31640625 22.51171875 C-16.33718735 23.23994339 -16.35796844 23.96816803 -16.37937927 24.71846008 C-16.44468746 27.04137875 -16.50367237 29.36440906 -16.5625 31.6875 C-16.60570305 33.26368335 -16.64931792 34.83985548 -16.69335938 36.41601562 C-16.8003496 40.27722975 -16.90166961 44.13855603 -17 48 C-18.98 48 -20.96 48 -23 48 C-23.07442006 42.98294279 -23.12872908 37.96621028 -23.16479492 32.94873047 C-23.17983738 31.24359537 -23.20027653 29.53849868 -23.22631836 27.83349609 C-23.26290284 25.37587988 -23.27977173 22.91877731 -23.29296875 20.4609375 C-23.30845261 19.70444916 -23.32393646 18.94796082 -23.33988953 18.16854858 C-23.34185511 11.92035689 -21.71879362 7.93364282 -17.5 3.1875 C-12.57660958 -1.12046662 -6.2373856 -0.98566093 0 0 Z " fill="#8B9992" transform="translate(886,516)"/>
<path d="M0 0 C2.31 0 4.62 0 7 0 C7 6.6 7 13.2 7 20 C14.92 20 22.84 20 31 20 C31 13.4 31 6.8 31 0 C33.31 0 35.62 0 38 0 C38 15.84 38 31.68 38 48 C36.02 48 34.04 48 32 48 C31 47 31 47 30.88647461 45.05053711 C30.89171143 44.2178833 30.89694824 43.38522949 30.90234375 42.52734375 C30.90484131 41.71773193 30.90733887 40.90812012 30.90991211 40.07397461 C30.91901611 39.03893799 30.92812012 38.00390137 30.9375 36.9375 C30.958125 33.658125 30.97875 30.37875 31 27 C23.08 27 15.16 27 7 27 C7 33.93 7 40.86 7 48 C4.69 48 2.38 48 0 48 C0 32.16 0 16.32 0 0 Z " fill="#8E9D96" transform="translate(794,516)"/>
<path d="M0 0 C6.72721267 -0.35682563 11.78231812 1.30386677 17.81640625 4.1796875 C17.81640625 5.4996875 17.81640625 6.8196875 17.81640625 8.1796875 C17.15640625 8.8396875 16.49640625 9.4996875 15.81640625 10.1796875 C13.50563751 9.86096078 11.72656459 9.13605012 9.62890625 8.1171875 C5.72991125 6.8175225 1.89354981 6.66050068 -2.18359375 7.1796875 C-3.17359375 7.8396875 -4.16359375 8.4996875 -5.18359375 9.1796875 C-5.76701728 12.63737941 -5.76701728 12.63737941 -5.18359375 16.1796875 C-2.15435428 19.16544507 1.07887062 19.94993391 5.12890625 20.9921875 C15.77067791 24.19190938 15.77067791 24.19190938 18.81640625 29.1796875 C19.84313708 33.35460625 19.82316139 37.15348702 17.88671875 41.05078125 C15.13925863 44.65121101 12.06402471 46.78955782 7.81640625 48.1796875 C-0.14367638 49.10078278 -6.21015426 48.07293062 -13.18359375 44.1796875 C-13.84359375 43.8496875 -14.50359375 43.5196875 -15.18359375 43.1796875 C-14.67755383 41.01094498 -14.18375562 39.18001123 -13.18359375 37.1796875 C-8.48591933 39.00656089 -8.48591933 39.00656089 -6.35546875 40.2265625 C-2.18323446 42.05754302 2.36175297 41.72722455 6.81640625 41.1796875 C9.93104839 39.22398197 10.5625297 38.1951937 11.44140625 34.6796875 C10.69807693 31.70637024 9.594834 30.69720632 6.99609375 29.13671875 C4.15192474 27.88793486 1.24752188 27.12945915 -1.74609375 26.3046875 C-8.94004431 24.16949669 -8.94004431 24.16949669 -11.49609375 21.5546875 C-13.79948725 16.94790049 -14.3136073 13.22495926 -13.18359375 8.1796875 C-11.18157356 4.50710741 -8.822573 1.86259552 -4.93359375 0.2421875 C-3.28750729 0.20477644 -1.64096492 0.13503468 0 0 Z " fill="#8B9A93" transform="translate(766.18359375,515.8203125)"/>
<path d="M0 0 C3.0625 0.375 3.0625 0.375 4.72900391 1.85888672 C6.65383898 5.49077069 6.49123056 8.99571464 6.4609375 13.0078125 C6.46524277 14.25738235 6.46524277 14.25738235 6.46963501 15.53219604 C6.47167277 17.28888633 6.46616306 19.04559945 6.45361328 20.80224609 C6.43751444 23.49758232 6.45349192 26.19142826 6.47265625 28.88671875 C6.47067456 30.59375332 6.46683243 32.30078696 6.4609375 34.0078125 C6.47004654 35.22031174 6.47004654 35.22031174 6.4793396 36.45730591 C6.45068359 38.72314453 6.45068359 38.72314453 6.0625 42.375 C2.61220958 44.67519361 1.11695642 44.80632515 -2.9375 44.375 C-5.54320381 40.46644429 -5.22520167 37.15436262 -5.203125 32.62109375 C-5.20503845 31.76443619 -5.2069519 30.90777863 -5.20892334 30.02516174 C-5.21028373 28.21542059 -5.20659747 26.40566964 -5.19824219 24.59594727 C-5.18752741 21.81960251 -5.19814904 19.0439029 -5.2109375 16.26757812 C-5.20961614 14.51041523 -5.20705422 12.75325274 -5.203125 10.99609375 C-5.20717346 10.16275009 -5.21122192 9.32940643 -5.21539307 8.47080994 C-5.15150419 0.65763883 -5.15150419 0.65763883 0 0 Z " fill="#E49096" transform="translate(309.9375,333.625)"/>
<path d="M0 0 C3.84517992 1.28172664 5.48553593 2.2968991 7.875 5.5625 C8.93918574 8.81417864 9.11969925 10.85380087 9.0703125 14.21484375 C9.05508545 15.56050415 9.05508545 15.56050415 9.03955078 16.93334961 C9.02649902 17.61534424 9.01344727 18.29733887 9 19 C4.85418113 19.02886751 0.70838784 19.04675327 -3.4375 19.0625 C-5.21350586 19.07506836 -5.21350586 19.07506836 -7.02539062 19.08789062 C-8.15009766 19.09111328 -9.27480469 19.09433594 -10.43359375 19.09765625 C-11.99678345 19.10551147 -11.99678345 19.10551147 -13.59155273 19.11352539 C-16 19 -16 19 -17 18 C-17.07205511 16.31391034 -17.08386068 14.62499341 -17.0625 12.9375 C-17.05347656 12.01839844 -17.04445313 11.09929688 -17.03515625 10.15234375 C-17.02355469 9.44207031 -17.01195312 8.73179687 -17 8 C-16.34 8 -15.68 8 -15 8 C-14.9071875 7.13375 -14.9071875 7.13375 -14.8125 6.25 C-12.34137214 -0.59312329 -6.27193403 -0.89599058 0 0 Z " fill="#F6F7F7" transform="translate(587,522)"/>
<path d="M0 0 C1.98 0 3.96 0 6 0 C6 13.53 6 27.06 6 41 C13.26 41 20.52 41 28 41 C28 42.98 28 44.96 28 47 C18.76 47 9.52 47 0 47 C0 31.49 0 15.98 0 0 Z " fill="#899891" transform="translate(615,517)"/>
<path d="M0 0 C3.88456871 1.29485624 5.49751105 2.29651548 7.875 5.625 C9 9 9 9 9 18 C0.75 18 -7.5 18 -16 18 C-16 6.57142857 -16 6.57142857 -12 2 C-7.93347285 -0.7110181 -4.7687626 -0.51355905 0 0 Z " fill="#FCFCFC" transform="translate(960,522)"/>
<path d="M0 0 C3.5 0.25 3.5 0.25 5.5 2.25 C6.60097652 8.58061499 3.97389518 12.8661853 1.0078125 18.3828125 C-0.52352091 21.16975331 -0.52352091 21.16975331 -1.55078125 23.91015625 C-2.99775674 27.47698061 -4.76702042 29.51702042 -7.5 32.25 C-10.125 32.875 -10.125 32.875 -12.5 32.25 C-14.375 30.6875 -14.375 30.6875 -15.5 28.25 C-15.1846935 21.96003951 -12.81105752 17.03354591 -10.0625 11.4375 C-9.65451172 10.57962891 -9.24652344 9.72175781 -8.82617188 8.83789062 C-4.72650748 0.33760768 -4.72650748 0.33760768 0 0 Z " fill="#E59398" transform="translate(342.5,351.75)"/>
<path d="M0 0 C3.625 0.1875 3.625 0.1875 6.625 2.1875 C7.77587891 4.23461914 7.77587891 4.23461914 8.8515625 6.72265625 C9.2434375 7.61404297 9.6353125 8.50542969 10.0390625 9.42382812 C10.43867188 10.35646484 10.83828125 11.28910156 11.25 12.25 C12.0528718 14.09584291 12.85746715 15.94093742 13.6640625 17.78515625 C14.01678223 18.60508057 14.36950195 19.42500488 14.73291016 20.26977539 C15.47515176 22.15194831 15.47515176 22.15194831 16.625 23.1875 C16.91678308 25.95943929 16.98866316 27.60159825 15.5 30 C12.68036176 31.78577089 10.89041798 31.72062947 7.625 31.1875 C3.5811815 27.03506654 1.28432771 21.92053816 -1.1875 16.75 C-1.60708984 15.91662109 -2.02667969 15.08324219 -2.45898438 14.22460938 C-4.71111555 9.53112349 -6.1135343 6.38662391 -4.375 1.1875 C-3.375 0.1875 -3.375 0.1875 0 0 Z " fill="#E59499" transform="translate(277.375,352.8125)"/>
<path d="M0 0 C2.31 0 4.62 0 7 0 C7 15.84 7 31.68 7 48 C4.69 48 2.38 48 0 48 C0 32.16 0 16.32 0 0 Z " fill="#8F9D96" transform="translate(844,516)"/>
<path d="M0 0 C2.31 0 4.62 0 7 0 C7.02526945 6.6752034 7.04283268 13.35039457 7.05493164 20.02563477 C7.05997325 22.29842591 7.06680637 24.5712138 7.07543945 26.84399414 C7.08751261 30.10303551 7.09322987 33.36203417 7.09765625 36.62109375 C7.10281754 37.64400009 7.10797882 38.66690643 7.11329651 39.72080994 C7.11337204 40.66170975 7.11344757 41.60260956 7.11352539 42.57202148 C7.115746 43.40475082 7.11796661 44.23748016 7.12025452 45.09544373 C7 47 7 47 6 48 C4.02 48 2.04 48 0 48 C0 32.16 0 16.32 0 0 Z " fill="#8F9D96" transform="translate(652,516)"/>
<path d="M0 0 C1.81640625 1.64453125 1.81640625 1.64453125 3.5625 3.8125 C6.0195301 6.83423846 6.0195301 6.83423846 8.71484375 9.63671875 C10 11 10 11 10 13 C6.64802157 15.23465229 5.42208754 15.27108649 1.5 15.25 C0.06140625 15.25773438 0.06140625 15.25773438 -1.40625 15.265625 C-4 15 -4 15 -7 13 C-7.95991811 10.02252946 -8.18825555 7.11729047 -8 4 C-5.48715116 0.1841925 -4.65186981 0 0 0 Z " fill="#F8F9F8" transform="translate(701,543)"/>
<path d="M0 0 C0.66 0 1.32 0 2 0 C2.99 2.97 3.98 5.94 5 9 C4.34 8.67 3.68 8.34 3 8 C2.67 28.46 2.34 48.92 2 70 C1.34 70 0.68 70 0 70 C0 46.9 0 23.8 0 0 Z " fill="#F5DADB" transform="translate(201,547)"/>
<path d="M0 0 C2 1.625 2 1.625 3 4 C3 7.96121655 2.45039605 9.51207094 -0.25 12.4375 C-3 14 -3 14 -5.6875 13.9375 C-8 13 -8 13 -10 10 C-10.42783066 7.19409764 -10.22830702 4.8766685 -10 2 C-6.29584707 -0.46943529 -4.37855495 -0.46913089 0 0 Z " fill="#F6F7F7" transform="translate(709,522)"/>
<path d="M0 0 C0.66 0 1.32 0 2 0 C2 23.43 2 46.86 2 71 C1.67 71 1.34 71 1 71 C0.505 39.32 0.505 39.32 0 7 C-0.66 7 -1.32 7 -2 7 C-1.34 4.69 -0.68 2.38 0 0 Z " fill="#F6DCDE" transform="translate(416,546)"/>
<path d="M0 0 C0 0.33 0 0.66 0 1 C-1.258125 1.103125 -2.51625 1.20625 -3.8125 1.3125 C-6.35345923 1.64022089 -7.76680427 1.84955114 -9.9375 3.25 C-11.27648437 5.45538602 -11.65660684 7.45889061 -12 10 C-12.33 10 -12.66 10 -13 10 C-13.47952345 3.64631422 -13.47952345 3.64631422 -11.5625 1.0625 C-7.74098146 -0.52203208 -4.08137509 -0.23546395 0 0 Z " fill="#E6E9E7" transform="translate(773,522)"/>
<path d="M0 0 C0.66 0.33 1.32 0.66 2 1 C-1.3 4.3 -4.6 7.6 -8 11 C-8 6.67750434 -5.85084926 5.11604454 -3 2 C-2.01 1.34 -1.02 0.68 0 0 Z " fill="#F7E1E3" transform="translate(326,409)"/>
</svg>
